#!OML:ASF H:\charlestonDancing\Project 1\Capture day 1\Session 1\femaleDancer.ASF
:FULLY-SPECIFIED
:DEGREES
1446
root -14.6512 17.6283 2.68885 464.253 -88.626 -463.483
lowerback 6.72298 -2.12898 0.756261
upperback -1.46565 -2.8108 -0.655097
thorax -5.36394 -1.42432 -0.787018
lowerneck 4.14797 -15.7458 -10.8658
upperneck 0.395086 -21.5068 7.05105
head 1.50497 -10.8285 3.71293
rclavicle -2.29814e-014 2.38542e-015
rhumerus -339.966 253.197 -53.2616
rradius 13.2162
rwrist 120.393
rhand -18.4564 -31.8028
rfingers 7.12502
rthumb 187.83 118.362
lclavicle -2.29814e-014 2.38542e-015
lhumerus -39.0507 48.5819 -2.73155
lradius 13.098
lwrist -40.161
lhand -22.2907 28.704
lfingers 7.12502
lthumb 4.12802 58.6437
rfemur -10.2552 -1.18882 16.016
rtibia 33.7097
rfoot -20.4519 -9.19669
rtoes -24.9262
lfemur -12.1561 -6.24062 -12.5377
ltibia 35.1198
lfoot -17.6 -7.25712
ltoes -21.4757
1447
root -14.6562 17.6404 2.68925 464.481 -88.6331 -463.723
lowerback 6.75751 -2.33549 0.614108
upperback -1.45998 -3.09601 -0.607003
thorax -5.3736 -1.55977 -0.623719
lowerneck 4.94512 -16.5064 -11.1075
upperneck 0.0814004 -22.595 6.84277
head 1.36751 -11.3791 3.7034
rclavicle 2.36895e-014 4.77083e-015
rhumerus -341.989 253.184 -51.6543
rradius 13.1298
rwrist 120.939
rhand -17.8641 -31.6036
rfingers 7.12502
rthumb 188.402 118.583
lclavicle 2.36895e-014 4.77083e-015
lhumerus -39.228 47.0628 -2.28249
lradius 13.2895
lwrist -38.2288
lhand -21.9686 28.9081
lfingers 7.12502
lthumb 4.43913 58.8415
rfemur -10.5834 -1.19017 16.0041
rtibia 33.6366
rfoot -20.3727 -9.12521
rtoes -23.7786
lfemur -12.1322 -6.21319 -12.5557
ltibia 35.1664
lfoot -17.6889 -7.26493
ltoes -21.7837
1448
root -14.6524 17.6332 2.68957 463.59 -88.4221 -462.768
lowerback 6.78936 -2.49922 0.725263
upperback -1.48168 -3.30025 -0.525401
thorax -5.41982 -1.66269 -0.575629
lowerneck 5.65393 -17.0846 -11.3145
upperneck -0.207667 -23.4392 6.82972
head 1.25438 -11.8077 3.75956
rclavicle 1.31384e-015 1.19271e-015
rhumerus -344.628 252.341 -49.4056
rradius 13.2077
rwrist 122.211
rhand -17.2783 -31.4629
rfingers 7.12502
rthumb 188.967 118.748
lclavicle 1.31384e-015 1.19271e-015
lhumerus -39.9223 46.8061 -2.75439
lradius 13.3623
lwrist -37.8583
lhand -21.3561 29.1533
lfingers 7.12502
lthumb 5.03051 59.0736
rfemur -10.4103 -1.09937 16.2305
rtibia 33.5337
rfoot -20.6108 -8.92998
rtoes -22.6291
lfemur -12.2758 -6.15782 -12.3034
ltibia 35.2875
lfoot -17.7629 -7.23962
ltoes -22.2661
1449
root -14.6465 17.6257 2.68965 463.128 -87.8831 -462.187
lowerback 6.77001 -2.60068 1.1761
upperback -1.49093 -3.38829 -0.378316
thorax -5.43802 -1.71799 -0.665042
lowerneck 5.35926 -17.604 -11.0444
upperneck 0.462145 -24.0943 6.10477
head 1.44859 -12.1314 3.38938
rclavicle -1.96642e-014 -2.78299e-015
rhumerus -348.151 249.989 -46.2501
rradius 13.5156
rwrist 124.938
rhand -16.7169 -31.3753
rfingers 7.12502
rthumb 189.508 118.859
lclavicle -1.96642e-014 -2.78299e-015
lhumerus -40.478 46.7794 -3.15038
lradius 13.4435
lwrist -37.6585
lhand -20.8369 29.3119
lfingers 7.12502
lthumb 5.53186 59.2197
rfemur -10.3396 -0.979946 16.8507
rtibia 33.4827
rfoot -20.347 -9.1455
rtoes -24.3606
lfemur -12.4624 -6.04514 -11.6765
ltibia 35.3709
lfoot -17.8223 -7.20147
ltoes -22.6857
1450
root -14.649 17.6227 2.69041 464.928 -87.7332 -464.01
lowerback 6.80335 -2.66837 1.24914
upperback -1.44714 -3.47115 -0.367276
thorax -5.41688 -1.76072 -0.684302
lowerneck 5.51733 -17.9439 -10.7604
upperneck 0.550836 -24.5448 5.78842
head 1.40735 -12.3562 3.24228
rclavicle -2.46182e-014 1.31198e-014
rhumerus -348.483 250.16 -46.2967
rradius 13.5491
rwrist 124.908
rhand -16.3578 -31.2953
rfingers 7.12502
rthumb 189.855 118.955
lclavicle -2.46182e-014 1.31198e-014
lhumerus -40.1864 45.5378 -2.34066
lradius 13.6661
lwrist -36.101
lhand -20.587 29.1682
lfingers 7.12502
lthumb 5.77307 59.0696
rfemur -10.2422 -0.953518 16.9939
rtibia 33.5014
rfoot -20.4053 -9.05642
rtoes -24.2345
lfemur -12.4069 -6.01196 -11.534
ltibia 35.3755
lfoot -17.908 -7.18547
ltoes -22.5859
1451
root -14.6577 17.6251 2.69193 469.888 -88.1713 -469.1
lowerback 6.90516 -2.69723 0.743786
upperback -1.38549 -3.56216 -0.534698
thorax -5.39162 -1.79223 -0.562291
lowerneck 5.90203 -18.142 -10.4815
upperneck 0.349913 -24.8252 5.76319
head 1.25988 -12.4981 3.23855
rclavicle -3.42655e-014 -1.15295e-014
rhumerus -346.158 252.405 -48.9556
rradius 13.3602
rwrist 122.733
rhand -16.3015 -31.3315
rfingers 7.12502
rthumb 189.909 118.922
lclavicle -3.42655e-014 -1.15295e-014
lhumerus -39.8082 44.2395 -1.36676
lradius 13.9341
lwrist -34.5118
lhand -20.4519 29.0269
lfingers 7.12502
lthumb 5.90356 58.9247
rfemur -10.2628 -1.13038 16.4285
rtibia 33.6157
rfoot -20.6105 -8.78402
rtoes -23.3586
lfemur -12.1651 -6.04259 -12.1071
ltibia 35.3138
lfoot -17.9682 -7.1232
ltoes -22.6739
1452
root -14.6643 17.6365 2.69322 477.461 -88.5717 -476.734
lowerback 7.0243 -2.71555 0.263779
upperback -1.3589 -3.63861 -0.70288
thorax -5.4136 -1.81777 -0.454883
lowerneck 6.23661 -18.2556 -10.3213
upperneck 0.184874 -24.9997 6.00107
head 1.17866 -12.5911 3.32588
rclavicle 1.64122e-014 7.95139e-016
rhumerus -344.222 253.866 -51.2609
rradius 13.2854
rwrist 121.319
rhand -16.3636 -31.6071
rfingers 7.12502
rthumb 189.849 118.643
lclavicle 1.64122e-014 7.95139e-016
lhumerus -41.0344 45.6915 -2.8341
lradius 13.9523
lwrist -36.0988
lhand -20.2714 28.8222
lfingers 7.12502
lthumb 6.07784 58.715
rfemur -10.6456 -1.19936 15.8969
rtibia 33.7782
rfoot -20.3988 -8.77107
rtoes -23.6204
lfemur -11.9698 -6.01416 -12.6496
ltibia 35.1641
lfoot -17.9815 -6.99981
ltoes -23.3135
1453
root -14.6615 17.6221 2.69463 485.814 -88.7824 -485.088
lowerback 7.12872 -2.72552 -0.0175011
upperback -1.35099 -3.6853 -0.831679
thorax -5.45599 -1.83419 -0.421011
lowerneck 6.4839 -18.3302 -10.2504
upperneck 0.0684833 -25.1225 6.36605
head 1.15477 -12.6605 3.4515
rclavicle 7.74639e-015 5.56597e-015
rhumerus -340.932 255.769 -55.0134
rradius 13.2704
rwrist 119.198
rhand -16.42 -31.8223
rfingers 7.12502
rthumb 189.795 118.425
lclavicle 7.74639e-015 5.56597e-015
lhumerus -43.5028 48.6279 -6.01502
lradius 13.8058
lwrist -39.7408
lhand -20.2815 27.9915
lfingers 7.12502
lthumb 6.06801 57.8846
rfemur -10.3516 -1.32308 15.5579
rtibia 33.9262
rfoot -20.7187 -8.64766
rtoes -24.1174
lfemur -11.9133 -5.9431 -12.9644
ltibia 35.0365
lfoot -17.9022 -7.01775
ltoes -23.1468
1454
root -14.6605 17.623 2.69222 486.642 -88.4955 -485.813
lowerback 7.18317 -2.69532 0.192669
upperback -1.36802 -3.62456 -0.806717
thorax -5.51561 -1.8101 -0.516205
lowerneck 6.45801 -18.3516 -9.74447
upperneck -0.0318426 -25.1126 6.32558
head 1.05202 -12.6535 3.38438
rclavicle -3.28678e-014 6.75868e-015
rhumerus -332.035 258.964 -64.4979
rradius 13.2784
rwrist 115.437
rhand -16.9162 -31.6515
rfingers 7.12502
rthumb 189.316 118.574
lclavicle -3.28678e-014 6.75868e-015
lhumerus -41.8501 45.4619 -2.76954
lradius 14.6288
lwrist -36.1878
lhand -20.3091 27.7748
lfingers 7.12502
lthumb 6.04138 57.6687
rfemur -10.556 -1.08979 15.8371
rtibia 34.0143
rfoot -20.704 -8.71994
rtoes -24.1146
lfemur -12.0084 -5.63965 -12.6683
ltibia 35.0456
lfoot -17.8064 -7.27737
ltoes -22.376
1455
root -14.6645 17.6404 2.68755 485.089 -87.8357 -484.06
lowerback 7.19587 -2.65409 0.729073
upperback -1.42379 -3.51154 -0.656231
thorax -5.60286 -1.76862 -0.670573
lowerneck 6.55304 -18.268 -9.08671
upperneck -0.426725 -24.951 6.27173
head 0.798817 -12.5689 3.33811
rclavicle 2.36616e-014 -1.59028e-015
rhumerus -305.264 262.782 -92.1122
rradius 13.3025
rwrist 109.893
rhand -17.8046 -31.9219
rfingers 7.12502
rthumb 188.459 118.268
lclavicle 2.36616e-014 -1.59028e-015
lhumerus -41.6613 43.7264 -1.25132
lradius 15.3314
lwrist -34.5273
lhand -20.5191 27.413
lfingers 7.12502
lthumb 5.83865 57.3126
rfemur -11.2917 -0.629049 16.5278
rtibia 34.1038
rfoot -20.3608 -8.84566
rtoes -24.0377
lfemur -12.194 -5.09546 -11.9517
ltibia 35.1333
lfoot -17.7993 -7.60241
ltoes -22.1031
1456
root -14.6661 17.6224 2.68151 491.069 -87.4575 -489.869
lowerback 7.21425 -2.6031 0.812634
upperback -1.48154 -3.43224 -0.591802
thorax -5.67318 -1.73118 -0.657471
lowerneck 6.26395 -18.2308 -8.75402
upperneck -0.310738 -24.8618 6.22296
head 0.827463 -12.5213 3.24911
rclavicle -7.51033e-015 5.1684e-015
rhumerus -235.643 261.57 -163.056
rradius 13.4706
rwrist 100.919
rhand -18.3727 -33.1997
rfingers 7.12502
rthumb 187.911 116.968
lclavicle -7.51033e-015 5.1684e-015
lhumerus -41.7403 41.6429 0.407547
lradius 16.1548
lwrist -32.6419
lhand -20.9488 27.1289
lfingers 7.12502
lthumb 5.42379 57.0395
rfemur -11.224 -0.413912 16.7125
rtibia 34.2876
rfoot -20.783 -8.65896
rtoes -24.6375
lfemur -12.3294 -4.59258 -11.7002
ltibia 35.2049
lfoot -17.8564 -7.84413
ltoes -21.9334
1457
root -14.6669 17.6111 2.66938 500.299 -87.1206 -498.917
lowerback 7.34892 -2.52684 0.588527
upperback -1.58311 -3.34913 -0.550449
thorax -5.83892 -1.68187 -0.490566
lowerneck 6.02379 -18.1926 -8.48228
upperneck -0.247459 -24.7792 6.2121
head 0.844774 -12.4775 3.18703
rclavicle 1.49213e-014 9.93923e-015
rhumerus -207.959 252.129 -192.633
rradius 14.0997
rwrist 89.5454
rhand -18.5048 -34.6855
rfingers 7.12502
rthumb 187.783 115.478
lclavicle 1.49213e-014 9.93923e-015
lhumerus -42.2164 39.6792 1.88144
lradius 16.9445
lwrist -31.1366
lhand -21.3401 26.5171
lfingers 7.12502
lthumb 5.04595 56.437
rfemur -11.5491 0.0304168 16.6837
rtibia 34.6393
rfoot -21.1893 -8.48503
rtoes -24.5612
lfemur -12.3754 -4.09845 -11.6891
ltibia 35.1975
lfoot -17.957 -7.99825
ltoes -22.0746
